<?xml version="1.0" encoding="utf-8"?>
<!-- Generator: Adobe Illustrator 26.0.0, SVG Export Plug-In . SVG Version: 6.00 Build 0)  -->
<svg version="1.1" id="Layer_1" xmlns="http://www.w3.org/2000/svg" xmlns:xlink="http://www.w3.org/1999/xlink" x="0px" y="0px"
	 viewBox="0 0 800 600" style="enable-background:new 0 0 800 600;" xml:space="preserve">
<style type="text/css">
	.st0{display:none;fill:none;stroke:#000000;stroke-width:6;stroke-miterlimit:10;}
	.st1{display:none;}
	.st2{display:inline;}
	.st3{fill:#0C0C0C;}
</style>
<path class="st0" d="M632.2,15.3c0,0,23.4,112.3-0.8,136.2c-24.2,23.9-112-24.7-136.2-0.8c-24.2,24,23.4,112.3-0.8,136.2
	c-24.2,23.9-112-24.7-136.2-0.8c-24.2,23.9,23.4,112.3-0.8,136.2c-24.2,23.9-112-24.7-136.2-0.8c-24.2,23.9,23.4,112.3-0.8,136.2
	C196.2,581.7,84.2,557,84.2,557"/>
<g class="st1">
	<g class="st2">
		<polygon class="st3" points="171.8,536.4 537.6,1.2 628.1,63 262.3,598.2 		"/>
	</g>
	<g class="st2">
		<polygon class="st3" points="101.4,162 163.2,71.5 698.5,437.4 636.7,527.8 		"/>
	</g>
</g>
<g>
	<path class="st3" d="M400.5,593.3c-101.3,0-194.1-51.1-248.1-136.7c-41.8-66.2-55.2-144.7-38-221.1
		C131.7,159.1,177.6,94,243.8,52.2C290.8,22.7,344.8,7,400,7c101.3,0,194.1,51.1,248.1,136.7c41.8,66.2,55.3,144.7,38,221.1
		c-17.3,76.4-63.3,141.4-129.5,183.2C509.7,577.6,455.7,593.3,400.5,593.3z M400,104.5c-36.8,0-72.8,10.4-104.2,30.2
		c-44.2,27.9-74.9,71.3-86.4,122.3c-11.5,51-2.5,103.4,25.4,147.6c36.1,57.2,98,91.3,165.7,91.3c36.8,0,72.9-10.5,104.2-30.2
		c44.2-27.9,74.9-71.3,86.4-122.3c11.5-51,2.6-103.4-25.4-147.6C529.6,138.6,467.7,104.5,400,104.5z"/>
</g>
</svg>
