<?xml version="1.0" encoding="utf-8"?>
<!-- Generator: Adobe Illustrator 26.0.0, SVG Export Plug-In . SVG Version: 6.00 Build 0)  -->
<svg version="1.1" id="Layer_1" xmlns="http://www.w3.org/2000/svg" xmlns:xlink="http://www.w3.org/1999/xlink" x="0px" y="0px"
	 viewBox="0 0 800 600" style="enable-background:new 0 0 800 600;" xml:space="preserve">
<style type="text/css">
	.st0{display:none;}
	.st1{display:inline;}
	.st2{fill:#0C0C0C;}
	.st3{display:inline;fill:#0C0C0C;}
	.st4{display:none;fill:none;stroke:#000000;stroke-width:6;stroke-miterlimit:10;}
	.st5{fill:#DFC6F8;}
	.st6{fill:#4B7BEC;}
	.st7{fill:#8FE3DA;}
</style>
<g class="st0">
	<g class="st1">
		<path d="M626.4,16.9c6.5,31.3,11.1,64.1,9.8,96.1c-0.4,8.8-1.2,17.8-4.2,26.1c-2.1,5.9-5.2,9.9-11.1,11.8
			c-8.1,2.5-17.3,1.6-25.6,0.4c-11.1-1.5-22.1-4.1-33.1-6.6c-11-2.4-22-4.8-33.2-6.1c-8.7-1-18.2-1.5-26.7,1.3
			c-18.6,6-21.2,25.4-19.7,42.5c2,22.3,8.6,43.8,11.7,65.9c1.2,8.5,2.3,17.9,0.1,26.4c-1.7,6.6-5.4,10.4-12,12.1
			c-8.2,2.1-17.4,1.1-25.7-0.2c-11.2-1.7-22.2-4.3-33.2-6.7c-10.9-2.4-21.9-4.7-33-5.9c-8.6-0.9-18-1.2-26.2,1.8
			c-18.4,6.7-20.2,26.6-18.5,43.6c2.2,22.2,8.8,43.6,11.8,65.6c1.1,8.5,2.1,17.9-0.4,26.2c-1.9,6.4-6.1,9.7-12.8,11.2
			c-8.6,1.9-18.1,0.6-26.7-0.8c-11-1.8-21.9-4.4-32.8-6.7c-10.8-2.4-21.8-4.6-32.8-5.7c-8.6-0.8-17.9-0.8-26.1,2.5
			c-17.9,7.3-18.9,27.9-17,44.6c2.5,22.1,9.1,43.4,11.8,65.4c1,8.4,2,17.8-0.9,26c-2,5.9-6.5,8.8-12.5,10.8
			c-18.4,6-39.7,4.1-58.6,2.4c-18.1-1.6-36.2-4.4-54.1-7.9c-2.9-0.6-5.9-1.2-8.8-1.8c-7.5-1.7-10.7,9.9-3.2,11.6
			c32,7.1,65.8,12.3,98.6,11.4c15.8-0.4,37.7-1.8,47.1-16.8c10.2-16.2,4.1-40.3,0.7-57.6c-2.3-11.4-4.9-22.7-6.8-34.2
			c-1.5-9.1-3-18.9-1.7-28.2c1-6.8,3.7-12.1,9.5-14.5c7.8-3.2,17.2-2.3,25.4-1.3c22.3,2.7,43.9,9.8,66.3,12.6
			c16.4,2.1,37.6,2,45.4-15.7c3.7-8.5,3.8-18.2,3-27.3c-0.9-11.1-3.1-22.1-5.4-33c-2.3-11.1-4.8-22.2-6.4-33.4
			c-1.2-8.6-2.3-18.2,0-26.7c1.8-6.7,5.8-10.3,12.6-11.9c8.5-2,18-0.7,26.5,0.6c22.3,3.6,44.1,10.5,66.7,12.5
			c17.3,1.5,36.2-1.9,41.6-20.8c2.5-8.9,2-18.7,0.9-27.8c-1.4-11.5-3.8-22.8-6.1-34.1c-2.3-10.9-4.7-21.8-5.8-32.8
			c-0.8-7.8-1.4-17.3,1.7-24.2c2.7-6.1,7.9-8.5,14.7-9.4c9.7-1.2,19.8,0.5,29.2,2.2c21.9,4,43.7,11.1,66.1,11.9
			c8.4,0.3,17.6-0.5,24.9-5.1c6.9-4.4,10.7-11.5,13-19.1c6-19.4,4.6-41.4,3-61.3c-1.5-18.8-4.2-37.5-7.5-56c-0.6-3-1.1-6.1-1.7-9.1
			C636.4,6.2,624.8,9.4,626.4,16.9L626.4,16.9z"/>
	</g>
</g>
<g class="st0">
	<g class="st1">
		<polygon class="st2" points="171.8,536.4 537.6,1.2 628.1,63 262.3,598.2 		"/>
	</g>
	<g class="st1">
		<polygon class="st2" points="101.4,162 163.2,71.5 698.5,437.4 636.7,527.8 		"/>
	</g>
</g>
<g class="st0">
	<path class="st3" d="M400.5,593.3c-101.3,0-194.1-51.1-248.1-136.7c-41.8-66.2-55.2-144.7-38-221.1
		C131.7,159.1,177.6,94,243.8,52.2C290.8,22.7,344.8,7,400,7c101.3,0,194.1,51.1,248.1,136.7c41.8,66.2,55.3,144.7,38,221.1
		S622.8,506.2,556.6,548C509.7,577.6,455.7,593.3,400.5,593.3z M400,104.5c-36.8,0-72.8,10.4-104.2,30.2
		c-44.2,27.9-74.9,71.3-86.4,122.3s-2.5,103.4,25.4,147.6c36.1,57.2,98,91.3,165.7,91.3c36.8,0,72.9-10.5,104.2-30.2
		c44.2-27.9,74.9-71.3,86.4-122.3s2.6-103.4-25.4-147.6C529.6,138.6,467.7,104.5,400,104.5z"/>
</g>
<g class="st0">
	<path class="st1" d="M747.7,526.3l-695.5-2.4l344-450.2L747.7,526.3z M203.2,449.6l391.3,1.3L396.7,196.3L203.2,449.6z"/>
</g>
<path class="st4" d="M684.2,8c0,0,24.7,118.6-0.8,143.9c-25.6,25.3-118.3-26.1-143.9-0.8c-25.6,25.3,24.8,118.6-0.8,143.9
	c-25.6,25.3-118.3-26.1-143.9-0.8c-25.6,25.3,24.8,118.6-0.8,143.9c-25.6,25.3-118.3-26.1-143.9-0.8
	c-25.6,25.3,24.8,118.6-0.8,143.9s-143.9-0.8-143.9-0.8"/>
<g class="st0">
	
		<image style="display:inline;overflow:visible;opacity:8.000000e-02;" width="602" height="604" xlink:href="931C14CC.png"  transform="matrix(1 0 0 1 108 -1)">
	</image>
	<g class="st1">
		<polygon class="st5" points="383.4,593.6 123.9,362.5 446.1,8.1 707,240.5 626.7,328.8 455.1,176 293.6,353.6 463.8,505.2 		"/>
	</g>
</g>
<g class="st0">
	
		<image style="display:inline;overflow:visible;opacity:8.000000e-02;" width="595" height="595" xlink:href="931C14CD.png"  transform="matrix(1 0 0 1 96.2509 2.4617)">
	</image>
	<g class="st1">
		<path class="st6" d="M112.1,488.7l99.3-476.6l476.6,99.3l-99.3,476.6L112.1,488.7z M301.9,150.4l-51.6,247.7l247.7,51.6
			l51.6-247.7L301.9,150.4z"/>
	</g>
</g>
<g>
	
		<image style="overflow:visible;opacity:8.000000e-02;" width="599" height="609" xlink:href="931C14CB.png"  transform="matrix(1 0 0 1 94.4897 -4.5103)">
	</image>
	<g>
		<path class="st7" d="M240.8,595.5L109.5,138.1L559.2,4.5l131.3,457.4L240.8,595.5z M249,215.8l68.2,237.7L551,384.2l-68.2-237.7
			L249,215.8z"/>
	</g>
</g>
</svg>
